<svg id="Layer_1" data-name="Layer 1" xmlns="http://www.w3.org/2000/svg" viewBox="0 0 266 25"><defs><style>.cls-1{fill:#fff;}.cls-2{fill:#231f20;}.cls-3{fill:#212838;}</style></defs><title>Demo</title><path class="cls-1" d="M206,2.85v.41h-1.16V6.43h-.48V3.26h-1.16V2.85Z"/><path class="cls-1" d="M208.34,5.26l.05.13.05-.13.06-.13,1.21-2.2a.14.14,0,0,1,.07-.07h.46V6.43h-.42V3.8s0-.07,0-.11,0-.08,0-.12L208.61,5.8a.19.19,0,0,1-.17.11h-.07a.19.19,0,0,1-.18-.11l-1.25-2.25s0,.09,0,.13,0,.08,0,.11V6.43h-.42V2.85H207a.14.14,0,0,1,.07.07l1.24,2.2Z"/><path class="cls-1" d="M30.53,22V6.49h6.89a3.28,3.28,0,0,1,2.41,1,3.33,3.33,0,0,1,1,2.42v.93a3.68,3.68,0,0,1-.78,2.22,3.07,3.07,0,0,1-2.64,1.06h1.71a1.65,1.65,0,0,1,1.21.51,1.67,1.67,0,0,1,.51,1.23V22H37.42V16.81a1.65,1.65,0,0,0-.51-1.21,1.67,1.67,0,0,0-1.23-.51H34V22ZM34,13.36h1.71a1.67,1.67,0,0,0,1.23-.51,1.65,1.65,0,0,0,.51-1.21V9.94a1.73,1.73,0,0,0-1.73-1.73H34Z"/><path class="cls-1" d="M44.29,22V6.49h8.6V8.21H47.73v5.16h3.44V15.1H47.73v5.16h5.16V22Z"/><path class="cls-1" d="M66.63,18.52Q66.42,22,63.2,22H59.76a3.47,3.47,0,0,1-3.44-3.44V9.94a3.34,3.34,0,0,1,1-2.42,3.29,3.29,0,0,1,2.44-1H63.2q3.24,0,3.42,3.44H64.91q-.21-1.73-1.71-1.73H61.47a1.65,1.65,0,0,0-1.21.51,1.67,1.67,0,0,0-.51,1.23v8.58a1.68,1.68,0,0,0,.51,1.22,1.63,1.63,0,0,0,1.21.52H63.2q1.53,0,1.71-1.73Z"/><path class="cls-1" d="M73.51,6.49H77a3.28,3.28,0,0,1,2.41,1,3.33,3.33,0,0,1,1,2.42v8.58a3.33,3.33,0,0,1-1,2.42A3.28,3.28,0,0,1,77,22H73.51a3.47,3.47,0,0,1-3.44-3.44V9.94a3.47,3.47,0,0,1,3.44-3.44Zm0,3.44v8.58A1.68,1.68,0,0,0,74,19.74a1.63,1.63,0,0,0,1.21.52,1.66,1.66,0,0,0,1.23-.52A1.68,1.68,0,0,0,77,18.52V9.94a1.73,1.73,0,0,0-1.73-1.73A1.65,1.65,0,0,0,74,8.71,1.67,1.67,0,0,0,73.51,9.94Z"/><path class="cls-1" d="M83.83,22V6.49h6.89a3.28,3.28,0,0,1,2.41,1,3.33,3.33,0,0,1,1,2.42v.93a3.68,3.68,0,0,1-.78,2.22,3.07,3.07,0,0,1-2.64,1.06h1.71a1.65,1.65,0,0,1,1.21.51,1.67,1.67,0,0,1,.51,1.23V22H90.72V16.81a1.65,1.65,0,0,0-.51-1.21A1.67,1.67,0,0,0,89,15.1H87.27V22Zm3.44-8.6H89a1.67,1.67,0,0,0,1.23-.51,1.65,1.65,0,0,0,.51-1.21V9.94A1.73,1.73,0,0,0,89,8.21H87.27Z"/><path class="cls-1" d="M97.58,22V6.49h6.89a3.28,3.28,0,0,1,2.41,1,3.33,3.33,0,0,1,1,2.42v8.58a3.33,3.33,0,0,1-1,2.42,3.28,3.28,0,0,1-2.41,1ZM101,20.25h1.71a1.66,1.66,0,0,0,1.23-.52,1.68,1.68,0,0,0,.51-1.22V9.94a1.73,1.73,0,0,0-1.73-1.73H101Z"/><path class="cls-1" d="M119.94,9.94h-1.71Q118,8.21,116.6,8.21a1.9,1.9,0,0,0-1.36.43,1.72,1.72,0,0,0-.45,1.3,1.85,1.85,0,0,0,.5,1.22l3.65,4.08a3.6,3.6,0,0,1,1,2.43v.85A3.47,3.47,0,0,1,116.5,22h-1.71a3.53,3.53,0,0,1-2.58-.86,3.49,3.49,0,0,1-.87-2.59h1.73v.29a1.22,1.22,0,0,0,.54,1.07,2,2,0,0,0,1.18.37,1.69,1.69,0,0,0,1.31-.44,1.86,1.86,0,0,0,.4-1.29A1.8,1.8,0,0,0,116,17.3l-3.65-4.08a3.55,3.55,0,0,1-1-2.43V9.94a3.33,3.33,0,0,1,1-2.42,3.3,3.3,0,0,1,2.43-1h1.71Q119.74,6.49,119.94,9.94Z"/><path class="cls-1" d="M126.51,22V6.49H130v6.31l5.57-6.31h3l-6.89,7.73L138.56,22h-3.44l-5.16-6v6Z"/><path class="cls-1" d="M142,22V6.49h8.6V8.21h-5.16v5.16h3.44V15.1h-3.44v5.16h5.16V22Z"/><path class="cls-1" d="M154,22V6.49h8.6V8.21h-5.16v5.16h3.44V15.1h-3.44v5.16h5.16V22Z"/><path class="cls-1" d="M166,22V6.49h6.89a3.28,3.28,0,0,1,2.41,1,3.33,3.33,0,0,1,1,2.42v1.71a3.33,3.33,0,0,1-1,2.42,3.28,3.28,0,0,1-2.41,1h-3.44V22Zm3.44-8.6h1.71a1.67,1.67,0,0,0,1.23-.51,1.65,1.65,0,0,0,.51-1.21V9.94a1.73,1.73,0,0,0-1.73-1.73h-1.71Z"/><path class="cls-1" d="M179.79,22V6.49h8.6V8.21h-5.16v5.16h3.44V15.1h-3.44v5.16h5.16V22Z"/><path class="cls-1" d="M191.81,22V6.49h6.89a3.28,3.28,0,0,1,2.41,1,3.33,3.33,0,0,1,1,2.42v.93a3.68,3.68,0,0,1-.78,2.22,3.07,3.07,0,0,1-2.64,1.06h1.71a1.65,1.65,0,0,1,1.21.51,1.67,1.67,0,0,1,.51,1.23V22H198.7V16.81a1.65,1.65,0,0,0-.51-1.21A1.67,1.67,0,0,0,197,15.1h-1.71V22Zm3.44-8.6H197a1.67,1.67,0,0,0,1.23-.51,1.65,1.65,0,0,0,.51-1.21V9.94A1.73,1.73,0,0,0,197,8.21h-1.71Z"/><g id="Files"><g id="File_3" data-name="File 3"><rect class="cls-1" x="18.24" y="4.1" width="5.67" height="18.87"/><path class="cls-2" d="M23.94,23H18.21V4.07h5.73Zm-5.67-.07h5.6V4.14h-5.6Z"/><circle class="cls-3" cx="21.08" cy="18.91" r="1.75"/><rect class="cls-3" x="19.17" y="5.22" width="3.84" height="7.3" rx="1.2" ry="1.2"/><circle class="cls-1" cx="21.09" cy="18.9" r="1.31"/><path class="cls-1" d="M20.19,6.77H22A.39.39,0,1,0,22,6H20.19a.39.39,0,1,0,0,.78Z"/><path class="cls-1" d="M22,7.2H20.19a.39.39,0,1,0,0,.78H22a.39.39,0,1,0,0-.78Z"/><path class="cls-1" d="M22,8.41H20.19a.39.39,0,1,0,0,.78H22a.39.39,0,1,0,0-.78Z"/></g><g id="File_2" data-name="File 2"><rect class="cls-1" x="11.82" y="4.21" width="5.67" height="18.87"/><path class="cls-2" d="M17.52,23.11H11.79V4.17h5.73ZM11.85,23h5.6V4.24h-5.6Z"/><circle class="cls-3" cx="14.67" cy="19.01" r="1.75"/><rect class="cls-3" x="12.75" y="5.32" width="3.84" height="7.3" rx="1.2" ry="1.2"/><circle class="cls-1" cx="14.68" cy="19" r="1.31"/><path class="cls-1" d="M13.77,6.87h1.81a.39.39,0,0,0,0-.78H13.77a.39.39,0,1,0,0,.78Z"/><path class="cls-1" d="M15.58,7.3H13.77a.39.39,0,1,0,0,.78h1.81a.39.39,0,0,0,0-.78Z"/><rect class="cls-1" x="13.38" y="8.51" width="2.59" height="0.78" rx="0.39" ry="0.39"/></g><g id="Tilted_File_1" data-name="Tilted File 1"><rect class="cls-1" x="2.92" y="3.77" width="5.67" height="18.87" transform="translate(4.11 -1.11) rotate(17)"/><path class="cls-2" d="M5.73,23.1h0L.25,21.42v0L5.78,3.31h0L11.27,5V5ZM.33,21.38,5.69,23l5.5-18L5.83,3.4Z"/><circle class="cls-3" cx="4.2" cy="18.34" r="1.75" transform="translate(-14.57 17) rotate(-73)"/><circle class="cls-1" cx="4.21" cy="18.34" r="1.31" transform="translate(-14.56 17) rotate(-73)"/><rect class="cls-3" x="3.5" y="6.82" width="7.3" height="3.84" rx="1.2" ry="1.2" transform="translate(-3.31 13.02) rotate(-73)"/><path class="cls-1" d="M8.85,6.26,7.12,5.73a.39.39,0,1,0-.23.74L8.62,7a.39.39,0,0,0,.23-.74Z"/><path class="cls-1" d="M8.5,7.42,6.76,6.89a.39.39,0,1,0-.23.74l1.73.53a.39.39,0,0,0,.23-.74Z"/><path class="cls-1" d="M8.14,8.57,6.41,8a.39.39,0,0,0-.23.74l1.73.53a.39.39,0,0,0,.23-.74Z"/></g></g><path class="cls-1" d="M227.4,16.1a5.7,5.7,0,0,1-1.63,4.38,6.63,6.63,0,0,1-4.7,1.52H217.8V10.43h3.63a6.12,6.12,0,0,1,4.4,1.5A5.5,5.5,0,0,1,227.4,16.1Zm-2.55.06q0-3.73-3.29-3.73h-1.31V20h1.05Q224.85,20,224.85,16.17Z"/><path class="cls-1" d="M236.46,22H229.8V10.43h6.67v2h-4.21V15h3.92v2h-3.92v3h4.21Z"/><path class="cls-1" d="M243.78,22,241,12.92h-.07q.15,2.77.15,3.7V22h-2.19V10.43h3.34L245,19.28h0l2.9-8.85h3.34V22H249V16.52c0-.26,0-.56,0-.89s0-1.23.11-2.69H249L246,22Z"/><path class="cls-1" d="M264.67,16.2a6.28,6.28,0,0,1-1.42,4.42,6.18,6.18,0,0,1-8.17,0,6.31,6.31,0,0,1-1.42-4.43,6.22,6.22,0,0,1,1.43-4.41,5.35,5.35,0,0,1,4.1-1.52,5.27,5.27,0,0,1,4.08,1.54A6.3,6.3,0,0,1,264.67,16.2Zm-8.45,0a4.84,4.84,0,0,0,.74,2.92,2.58,2.58,0,0,0,2.2,1q2.94,0,2.94-3.9t-2.92-3.91a2.59,2.59,0,0,0-2.21,1A4.81,4.81,0,0,0,256.22,16.2Z"/></svg>