<svg id="Layer_1" data-name="Layer 1" xmlns="http://www.w3.org/2000/svg" viewBox="0 0 317 25"><defs><style>.cls-1{fill:#fff;}.cls-2{fill:#231f20;}.cls-3{fill:#212838;}</style></defs><title>All Logo</title><path class="cls-1" d="M205.76,2.37v.41h-1.16V6h-.48V2.78H203V2.37Z"/><path class="cls-1" d="M208.1,4.78l.05.13.05-.13.06-.13,1.21-2.2a.14.14,0,0,1,.07-.07H210V6h-.42V3.32s0-.07,0-.11,0-.08,0-.12l-1.23,2.24a.19.19,0,0,1-.17.11h-.07a.19.19,0,0,1-.18-.11l-1.25-2.25s0,.09,0,.13,0,.08,0,.11V6h-.42V2.37h.46a.14.14,0,0,1,.07.07L208,4.66Z"/><path class="cls-1" d="M30.28,21.48V6h6.89a3.28,3.28,0,0,1,2.41,1,3.33,3.33,0,0,1,1,2.42v.93a3.68,3.68,0,0,1-.78,2.22,3.07,3.07,0,0,1-2.64,1.06h1.71a1.65,1.65,0,0,1,1.21.51,1.67,1.67,0,0,1,.51,1.23v6.08H37.17V16.33a1.65,1.65,0,0,0-.51-1.21,1.67,1.67,0,0,0-1.23-.51H33.73v6.87Zm3.44-8.6h1.71a1.67,1.67,0,0,0,1.23-.51,1.65,1.65,0,0,0,.51-1.21V9.46a1.73,1.73,0,0,0-1.73-1.73H33.73Z"/><path class="cls-1" d="M44,21.48V6h8.6V7.73H47.49v5.16h3.44v1.73H47.49v5.16h5.16v1.71Z"/><path class="cls-1" d="M66.38,18q-.21,3.44-3.42,3.44H59.51A3.47,3.47,0,0,1,56.07,18V9.46a3.34,3.34,0,0,1,1-2.42,3.29,3.29,0,0,1,2.44-1H63q3.24,0,3.42,3.44H64.67Q64.46,7.73,63,7.73H61.22A1.65,1.65,0,0,0,60,8.23a1.67,1.67,0,0,0-.51,1.23V18A1.68,1.68,0,0,0,60,19.26a1.63,1.63,0,0,0,1.21.52H63q1.53,0,1.71-1.73Z"/><path class="cls-1" d="M73.27,6h3.44a3.28,3.28,0,0,1,2.41,1,3.33,3.33,0,0,1,1,2.42V18a3.33,3.33,0,0,1-1,2.42,3.28,3.28,0,0,1-2.41,1H73.27A3.47,3.47,0,0,1,69.82,18V9.46A3.47,3.47,0,0,1,73.27,6Zm0,3.44V18a1.68,1.68,0,0,0,.51,1.22,1.63,1.63,0,0,0,1.21.52,1.66,1.66,0,0,0,1.23-.52A1.68,1.68,0,0,0,76.71,18V9.46A1.73,1.73,0,0,0,75,7.73a1.65,1.65,0,0,0-1.21.51A1.67,1.67,0,0,0,73.27,9.46Z"/><path class="cls-1" d="M83.58,21.48V6h6.89a3.28,3.28,0,0,1,2.41,1,3.33,3.33,0,0,1,1,2.42v.93a3.68,3.68,0,0,1-.78,2.22,3.07,3.07,0,0,1-2.64,1.06h1.71a1.65,1.65,0,0,1,1.21.51,1.67,1.67,0,0,1,.51,1.23v6.08H90.47V16.33A1.65,1.65,0,0,0,90,15.12a1.67,1.67,0,0,0-1.23-.51H87v6.87ZM87,12.88h1.71A1.67,1.67,0,0,0,90,12.38a1.65,1.65,0,0,0,.51-1.21V9.46a1.73,1.73,0,0,0-1.73-1.73H87Z"/><path class="cls-1" d="M97.34,21.48V6h6.89a3.28,3.28,0,0,1,2.41,1,3.33,3.33,0,0,1,1,2.42V18a3.33,3.33,0,0,1-1,2.42,3.28,3.28,0,0,1-2.41,1Zm3.44-1.71h1.71a1.66,1.66,0,0,0,1.23-.52,1.68,1.68,0,0,0,.51-1.22V9.46a1.73,1.73,0,0,0-1.73-1.73h-1.71Z"/><path class="cls-1" d="M119.7,9.46H118q-.23-1.73-1.63-1.73a1.9,1.9,0,0,0-1.36.43,1.72,1.72,0,0,0-.45,1.3,1.85,1.85,0,0,0,.5,1.22l3.65,4.08a3.6,3.6,0,0,1,1,2.43V18a3.47,3.47,0,0,1-3.44,3.44h-1.71a3.53,3.53,0,0,1-2.58-.86,3.49,3.49,0,0,1-.87-2.59h1.73v.29a1.22,1.22,0,0,0,.54,1.07,2,2,0,0,0,1.18.37,1.69,1.69,0,0,0,1.31-.44,1.86,1.86,0,0,0,.4-1.29,1.8,1.8,0,0,0-.49-1.22l-3.65-4.08a3.55,3.55,0,0,1-1-2.43V9.46a3.33,3.33,0,0,1,1-2.42,3.3,3.3,0,0,1,2.43-1h1.71Q119.49,6,119.7,9.46Z"/><path class="cls-1" d="M126.26,21.48V6h3.44v6.31L135.28,6h3l-6.89,7.73,6.89,7.73h-3.44l-5.16-6v6Z"/><path class="cls-1" d="M141.73,21.48V6h8.6V7.73h-5.16v5.16h3.44v1.73h-3.44v5.16h5.16v1.71Z"/><path class="cls-1" d="M153.76,21.48V6h8.6V7.73H157.2v5.16h3.44v1.73H157.2v5.16h5.16v1.71Z"/><path class="cls-1" d="M165.78,21.48V6h6.89a3.28,3.28,0,0,1,2.41,1,3.33,3.33,0,0,1,1,2.42v1.71a3.33,3.33,0,0,1-1,2.42,3.28,3.28,0,0,1-2.41,1h-3.44v6.87Zm3.44-8.6h1.71a1.67,1.67,0,0,0,1.23-.51,1.65,1.65,0,0,0,.51-1.21V9.46a1.73,1.73,0,0,0-1.73-1.73h-1.71Z"/><path class="cls-1" d="M179.54,21.48V6h8.6V7.73H183v5.16h3.44v1.73H183v5.16h5.16v1.71Z"/><path class="cls-1" d="M191.56,21.48V6h6.89a3.28,3.28,0,0,1,2.41,1,3.33,3.33,0,0,1,1,2.42v.93a3.68,3.68,0,0,1-.78,2.22,3.07,3.07,0,0,1-2.64,1.06h1.71a1.65,1.65,0,0,1,1.21.51,1.67,1.67,0,0,1,.51,1.23v6.08h-3.42V16.33a1.65,1.65,0,0,0-.51-1.21,1.67,1.67,0,0,0-1.23-.51H195v6.87Zm3.44-8.6h1.71a1.67,1.67,0,0,0,1.23-.51,1.65,1.65,0,0,0,.51-1.21V9.46a1.73,1.73,0,0,0-1.73-1.73H195Z"/><g id="Files"><g id="File_3" data-name="File 3"><rect class="cls-1" x="17.99" y="3.62" width="5.67" height="18.87"/><path class="cls-2" d="M23.69,22.53H18V3.59h5.73ZM18,22.46h5.6V3.66H18Z"/><circle class="cls-3" cx="20.84" cy="18.43" r="1.75"/><rect class="cls-3" x="18.92" y="4.74" width="3.84" height="7.3" rx="1.2" ry="1.2"/><circle class="cls-1" cx="20.85" cy="18.42" r="1.31"/><path class="cls-1" d="M19.94,6.29h1.81a.39.39,0,1,0,0-.78H19.94a.39.39,0,1,0,0,.78Z"/><path class="cls-1" d="M21.75,6.72H19.94a.39.39,0,1,0,0,.78h1.81a.39.39,0,1,0,0-.78Z"/><path class="cls-1" d="M21.75,7.93H19.94a.39.39,0,1,0,0,.78h1.81a.39.39,0,1,0,0-.78Z"/></g><g id="File_2" data-name="File 2"><rect class="cls-1" x="11.57" y="3.73" width="5.67" height="18.87"/><path class="cls-2" d="M17.27,22.63H11.54V3.69h5.73Zm-5.67-.07h5.6V3.76h-5.6Z"/><circle class="cls-3" cx="14.42" cy="18.53" r="1.75"/><rect class="cls-3" x="12.51" y="4.84" width="3.84" height="7.3" rx="1.2" ry="1.2"/><circle class="cls-1" cx="14.43" cy="18.52" r="1.31"/><path class="cls-1" d="M13.52,6.39h1.81a.39.39,0,0,0,0-.78H13.52a.39.39,0,1,0,0,.78Z"/><path class="cls-1" d="M15.33,6.82H13.52a.39.39,0,1,0,0,.78h1.81a.39.39,0,0,0,0-.78Z"/><rect class="cls-1" x="13.13" y="8.03" width="2.59" height="0.78" rx="0.39" ry="0.39"/></g><g id="Tilted_File_1" data-name="Tilted File 1"><rect class="cls-1" x="2.68" y="3.29" width="5.67" height="18.87" transform="translate(3.96 -1.05) rotate(17)"/><path class="cls-2" d="M5.48,22.62h0L0,20.94v0L5.54,2.84h0L11,4.51v0ZM.08,20.9l5.36,1.64,5.5-18L5.58,2.92Z"/><circle class="cls-3" cx="3.95" cy="17.86" r="1.75" transform="translate(-14.29 16.42) rotate(-73)"/><circle class="cls-1" cx="3.96" cy="17.86" r="1.31" transform="translate(-14.28 16.43) rotate(-73)"/><rect class="cls-3" x="3.25" y="6.34" width="7.3" height="3.84" rx="1.2" ry="1.2" transform="translate(-3.02 12.44) rotate(-73)"/><path class="cls-1" d="M8.6,5.78,6.87,5.25A.39.39,0,1,0,6.64,6l1.73.53a.39.39,0,0,0,.23-.74Z"/><path class="cls-1" d="M8.25,6.94,6.52,6.41a.39.39,0,1,0-.23.74L8,7.68a.39.39,0,0,0,.23-.74Z"/><path class="cls-1" d="M7.9,8.09,6.16,7.56a.39.39,0,0,0-.23.74l1.73.53a.39.39,0,0,0,.23-.74Z"/></g></g><path class="cls-1" d="M224.83,11.11h3.37a6.5,6.5,0,0,1,3.34.65,2.28,2.28,0,0,1,1,2.08,2.63,2.63,0,0,1-.46,1.59,1.82,1.82,0,0,1-1.21.75v.07a2.38,2.38,0,0,1,1.48.86,2.79,2.79,0,0,1,.46,1.67,2.76,2.76,0,0,1-1.07,2.31,4.63,4.63,0,0,1-2.91.83h-4Zm2.29,4.29h1.33a2.44,2.44,0,0,0,1.35-.29,1.08,1.08,0,0,0,.42-1,1,1,0,0,0-.46-.89,2.93,2.93,0,0,0-1.44-.27h-1.21Zm0,1.82V20h1.5a2.22,2.22,0,0,0,1.4-.36,1.34,1.34,0,0,0,.45-1.11q0-1.35-1.92-1.35Z"/><path class="cls-1" d="M241.65,21.93l-.79-2.58h-3.95l-.79,2.58h-2.47l3.82-10.87h2.81l3.83,10.87Zm-1.33-4.5q-1.09-3.5-1.23-4c-.09-.31-.16-.55-.2-.73q-.24.95-1.4,4.69Z"/><path class="cls-1" d="M251.87,18.92a2.8,2.8,0,0,1-1.05,2.31,4.58,4.58,0,0,1-2.94.84,6.89,6.89,0,0,1-3.07-.65V19.29a12.64,12.64,0,0,0,1.85.69,5.51,5.51,0,0,0,1.39.2,2,2,0,0,0,1.16-.29,1,1,0,0,0,.4-.86,1,1,0,0,0-.18-.57,2,2,0,0,0-.52-.48,13.64,13.64,0,0,0-1.4-.73,6.65,6.65,0,0,1-1.49-.9,3.35,3.35,0,0,1-.79-1,2.85,2.85,0,0,1-.3-1.33,2.8,2.8,0,0,1,1-2.26,4,4,0,0,1,2.69-.82,6.34,6.34,0,0,1,1.61.2,11.2,11.2,0,0,1,1.6.56l-.74,1.78a10.88,10.88,0,0,0-1.43-.5,4.61,4.61,0,0,0-1.11-.14,1.48,1.48,0,0,0-1,.3,1,1,0,0,0-.35.79,1,1,0,0,0,.14.53,1.55,1.55,0,0,0,.45.44,13.79,13.79,0,0,0,1.45.76,5.78,5.78,0,0,1,2.08,1.46A2.84,2.84,0,0,1,251.87,18.92Z"/><path class="cls-1" d="M253.83,21.93V11.11h2.29V21.93Z"/><path class="cls-1" d="M263.45,12.86a2.34,2.34,0,0,0-2,1,4.52,4.52,0,0,0-.71,2.71q0,3.62,2.72,3.62a8.59,8.59,0,0,0,2.76-.57v1.92a7.66,7.66,0,0,1-3,.56,4.54,4.54,0,0,1-3.61-1.43,6.06,6.06,0,0,1-1.25-4.11,6.71,6.71,0,0,1,.62-3,4.43,4.43,0,0,1,1.77-1.95,5.23,5.23,0,0,1,2.7-.68,7.28,7.28,0,0,1,3.17.76l-.74,1.87a12.07,12.07,0,0,0-1.22-.5A3.66,3.66,0,0,0,263.45,12.86Z"/><path class="cls-1" d="M281.44,16.41a5.33,5.33,0,0,1-1.52,4.09,6.2,6.2,0,0,1-4.39,1.42h-3.07V11.11h3.4A5.72,5.72,0,0,1,280,12.5,5.15,5.15,0,0,1,281.44,16.41Zm-2.38.06Q279.05,13,276,13h-1.22v7h1Q279.05,20,279.05,16.47Z"/><path class="cls-1" d="M289.92,21.93h-6.23V11.11h6.23V13H286v2.38h3.67v1.88H286V20h3.94Z"/><path class="cls-1" d="M296.76,21.93l-2.61-8.49h-.07q.14,2.59.14,3.46v5h-2.05V11.11h3.13l2.56,8.28h0l2.72-8.28h3.12V21.93h-2.14V16.81c0-.24,0-.52,0-.84s0-1.16.1-2.52h-.07l-2.79,8.48Z"/><path class="cls-1" d="M316.3,16.5A5.87,5.87,0,0,1,315,20.63a5.77,5.77,0,0,1-7.64,0A5.9,5.9,0,0,1,306,16.49a5.82,5.82,0,0,1,1.34-4.13,5,5,0,0,1,3.83-1.42A4.93,4.93,0,0,1,315,12.37,5.89,5.89,0,0,1,316.3,16.5Zm-7.9,0a4.52,4.52,0,0,0,.69,2.73,2.41,2.41,0,0,0,2.06.92q2.75,0,2.75-3.65t-2.73-3.66a2.43,2.43,0,0,0-2.07.92A4.5,4.5,0,0,0,308.4,16.5Z"/></svg>