<svg id="Layer_1" data-name="Layer 1" xmlns="http://www.w3.org/2000/svg" viewBox="0 0 338 25"><defs><style>.cls-1{fill:#fff;}.cls-2{fill:#231f20;}.cls-3{fill:#212838;}</style></defs><title>All Logo</title><path class="cls-1" d="M205.76,2.37v.41h-1.16V6h-.48V2.78H203V2.37Z"/><path class="cls-1" d="M208.1,4.78l.05.13.05-.13.06-.13,1.21-2.2a.14.14,0,0,1,.07-.07H210V6h-.42V3.32s0-.07,0-.11,0-.08,0-.12l-1.23,2.24a.19.19,0,0,1-.17.11h-.07a.19.19,0,0,1-.18-.11l-1.25-2.25s0,.09,0,.13,0,.08,0,.11V6h-.42V2.37h.46a.14.14,0,0,1,.07.07L208,4.66Z"/><path class="cls-1" d="M30.28,21.48V6h6.89a3.28,3.28,0,0,1,2.41,1,3.33,3.33,0,0,1,1,2.42v.93a3.68,3.68,0,0,1-.78,2.22,3.07,3.07,0,0,1-2.64,1.06h1.71a1.65,1.65,0,0,1,1.21.51,1.67,1.67,0,0,1,.51,1.23v6.08H37.17V16.33a1.65,1.65,0,0,0-.51-1.21,1.67,1.67,0,0,0-1.23-.51H33.73v6.87Zm3.44-8.6h1.71a1.67,1.67,0,0,0,1.23-.51,1.65,1.65,0,0,0,.51-1.21V9.46a1.73,1.73,0,0,0-1.73-1.73H33.73Z"/><path class="cls-1" d="M44,21.48V6h8.6V7.73H47.49v5.16h3.44v1.73H47.49v5.16h5.16v1.71Z"/><path class="cls-1" d="M66.38,18q-.21,3.44-3.42,3.44H59.51A3.47,3.47,0,0,1,56.07,18V9.46a3.34,3.34,0,0,1,1-2.42,3.29,3.29,0,0,1,2.44-1H63q3.24,0,3.42,3.44H64.67Q64.46,7.73,63,7.73H61.22A1.65,1.65,0,0,0,60,8.23a1.67,1.67,0,0,0-.51,1.23V18A1.68,1.68,0,0,0,60,19.26a1.63,1.63,0,0,0,1.21.52H63q1.53,0,1.71-1.73Z"/><path class="cls-1" d="M73.27,6h3.44a3.28,3.28,0,0,1,2.41,1,3.33,3.33,0,0,1,1,2.42V18a3.33,3.33,0,0,1-1,2.42,3.28,3.28,0,0,1-2.41,1H73.27A3.47,3.47,0,0,1,69.82,18V9.46A3.47,3.47,0,0,1,73.27,6Zm0,3.44V18a1.68,1.68,0,0,0,.51,1.22,1.63,1.63,0,0,0,1.21.52,1.66,1.66,0,0,0,1.23-.52A1.68,1.68,0,0,0,76.71,18V9.46A1.73,1.73,0,0,0,75,7.73a1.65,1.65,0,0,0-1.21.51A1.67,1.67,0,0,0,73.27,9.46Z"/><path class="cls-1" d="M83.58,21.48V6h6.89a3.28,3.28,0,0,1,2.41,1,3.33,3.33,0,0,1,1,2.42v.93a3.68,3.68,0,0,1-.78,2.22,3.07,3.07,0,0,1-2.64,1.06h1.71a1.65,1.65,0,0,1,1.21.51,1.67,1.67,0,0,1,.51,1.23v6.08H90.47V16.33A1.65,1.65,0,0,0,90,15.12a1.67,1.67,0,0,0-1.23-.51H87v6.87ZM87,12.88h1.71A1.67,1.67,0,0,0,90,12.38a1.65,1.65,0,0,0,.51-1.21V9.46a1.73,1.73,0,0,0-1.73-1.73H87Z"/><path class="cls-1" d="M97.34,21.48V6h6.89a3.28,3.28,0,0,1,2.41,1,3.33,3.33,0,0,1,1,2.42V18a3.33,3.33,0,0,1-1,2.42,3.28,3.28,0,0,1-2.41,1Zm3.44-1.71h1.71a1.66,1.66,0,0,0,1.23-.52,1.68,1.68,0,0,0,.51-1.22V9.46a1.73,1.73,0,0,0-1.73-1.73h-1.71Z"/><path class="cls-1" d="M119.7,9.46H118q-.23-1.73-1.63-1.73a1.9,1.9,0,0,0-1.36.43,1.72,1.72,0,0,0-.45,1.3,1.85,1.85,0,0,0,.5,1.22l3.65,4.08a3.6,3.6,0,0,1,1,2.43V18a3.47,3.47,0,0,1-3.44,3.44h-1.71a3.53,3.53,0,0,1-2.58-.86,3.49,3.49,0,0,1-.87-2.59h1.73v.29a1.22,1.22,0,0,0,.54,1.07,2,2,0,0,0,1.18.37,1.69,1.69,0,0,0,1.31-.44,1.86,1.86,0,0,0,.4-1.29,1.8,1.8,0,0,0-.49-1.22l-3.65-4.08a3.55,3.55,0,0,1-1-2.43V9.46a3.33,3.33,0,0,1,1-2.42,3.3,3.3,0,0,1,2.43-1h1.71Q119.49,6,119.7,9.46Z"/><path class="cls-1" d="M126.26,21.48V6h3.44v6.31L135.28,6h3l-6.89,7.73,6.89,7.73h-3.44l-5.16-6v6Z"/><path class="cls-1" d="M141.73,21.48V6h8.6V7.73h-5.16v5.16h3.44v1.73h-3.44v5.16h5.16v1.71Z"/><path class="cls-1" d="M153.76,21.48V6h8.6V7.73H157.2v5.16h3.44v1.73H157.2v5.16h5.16v1.71Z"/><path class="cls-1" d="M165.78,21.48V6h6.89a3.28,3.28,0,0,1,2.41,1,3.33,3.33,0,0,1,1,2.42v1.71a3.33,3.33,0,0,1-1,2.42,3.28,3.28,0,0,1-2.41,1h-3.44v6.87Zm3.44-8.6h1.71a1.67,1.67,0,0,0,1.23-.51,1.65,1.65,0,0,0,.51-1.21V9.46a1.73,1.73,0,0,0-1.73-1.73h-1.71Z"/><path class="cls-1" d="M179.54,21.48V6h8.6V7.73H183v5.16h3.44v1.73H183v5.16h5.16v1.71Z"/><path class="cls-1" d="M191.56,21.48V6h6.89a3.28,3.28,0,0,1,2.41,1,3.33,3.33,0,0,1,1,2.42v.93a3.68,3.68,0,0,1-.78,2.22,3.07,3.07,0,0,1-2.64,1.06h1.71a1.65,1.65,0,0,1,1.21.51,1.67,1.67,0,0,1,.51,1.23v6.08h-3.42V16.33a1.65,1.65,0,0,0-.51-1.21,1.67,1.67,0,0,0-1.23-.51H195v6.87Zm3.44-8.6h1.71a1.67,1.67,0,0,0,1.23-.51,1.65,1.65,0,0,0,.51-1.21V9.46a1.73,1.73,0,0,0-1.73-1.73H195Z"/><g id="Files"><g id="File_3" data-name="File 3"><rect class="cls-1" x="17.99" y="3.62" width="5.67" height="18.87"/><path class="cls-2" d="M23.69,22.53H18V3.59h5.73ZM18,22.46h5.6V3.66H18Z"/><circle class="cls-3" cx="20.84" cy="18.43" r="1.75"/><rect class="cls-3" x="18.92" y="4.74" width="3.84" height="7.3" rx="1.2" ry="1.2"/><circle class="cls-1" cx="20.85" cy="18.42" r="1.31"/><path class="cls-1" d="M19.94,6.29h1.81a.39.39,0,1,0,0-.78H19.94a.39.39,0,1,0,0,.78Z"/><path class="cls-1" d="M21.75,6.72H19.94a.39.39,0,1,0,0,.78h1.81a.39.39,0,1,0,0-.78Z"/><path class="cls-1" d="M21.75,7.93H19.94a.39.39,0,1,0,0,.78h1.81a.39.39,0,1,0,0-.78Z"/></g><g id="File_2" data-name="File 2"><rect class="cls-1" x="11.57" y="3.73" width="5.67" height="18.87"/><path class="cls-2" d="M17.27,22.63H11.54V3.69h5.73Zm-5.67-.07h5.6V3.76h-5.6Z"/><circle class="cls-3" cx="14.42" cy="18.53" r="1.75"/><rect class="cls-3" x="12.51" y="4.84" width="3.84" height="7.3" rx="1.2" ry="1.2"/><circle class="cls-1" cx="14.43" cy="18.52" r="1.31"/><path class="cls-1" d="M13.52,6.39h1.81a.39.39,0,0,0,0-.78H13.52a.39.39,0,1,0,0,.78Z"/><path class="cls-1" d="M15.33,6.82H13.52a.39.39,0,1,0,0,.78h1.81a.39.39,0,0,0,0-.78Z"/><rect class="cls-1" x="13.13" y="8.03" width="2.59" height="0.78" rx="0.39" ry="0.39"/></g><g id="Tilted_File_1" data-name="Tilted File 1"><rect class="cls-1" x="2.68" y="3.29" width="5.67" height="18.87" transform="translate(3.96 -1.05) rotate(17)"/><path class="cls-2" d="M5.48,22.62h0L0,20.94v0L5.54,2.84h0L11,4.51v0ZM.08,20.9l5.36,1.64,5.5-18L5.58,2.92Z"/><circle class="cls-3" cx="3.95" cy="17.86" r="1.75" transform="translate(-14.29 16.42) rotate(-73)"/><circle class="cls-1" cx="3.96" cy="17.86" r="1.31" transform="translate(-14.28 16.43) rotate(-73)"/><rect class="cls-3" x="3.25" y="6.34" width="7.3" height="3.84" rx="1.2" ry="1.2" transform="translate(-3.02 12.44) rotate(-73)"/><path class="cls-1" d="M8.6,5.78,6.87,5.25A.39.39,0,1,0,6.64,6l1.73.53a.39.39,0,0,0,.23-.74Z"/><path class="cls-1" d="M8.25,6.94,6.52,6.41a.39.39,0,1,0-.23.74L8,7.68a.39.39,0,0,0,.23-.74Z"/><path class="cls-1" d="M7.9,8.09,6.16,7.56a.39.39,0,0,0-.23.74l1.73.53a.39.39,0,0,0,.23-.74Z"/></g></g><path class="cls-1" d="M227.13,17.47v4.16h-2.3V10.79H228a5.41,5.41,0,0,1,3.27.8A2.87,2.87,0,0,1,232.32,14a2.88,2.88,0,0,1-.53,1.7,3.48,3.48,0,0,1-1.49,1.17q2.45,3.65,3.19,4.72h-2.55l-2.59-4.16Zm0-1.87h.74a2.83,2.83,0,0,0,1.61-.36A1.3,1.3,0,0,0,230,14.1a1.18,1.18,0,0,0-.53-1.1,3.21,3.21,0,0,0-1.64-.33h-.7Z"/><path class="cls-1" d="M241.1,21.63h-6.24V10.79h6.24v1.88h-3.94v2.38h3.67v1.88h-3.67v2.79h3.94Z"/><path class="cls-1" d="M247.54,21.63h-2.3V12.7H242.3V10.79h8.18V12.7h-2.94Z"/><path class="cls-1" d="M254.45,17.47v4.16h-2.3V10.79h3.16a5.41,5.41,0,0,1,3.27.8A2.87,2.87,0,0,1,259.63,14a2.88,2.88,0,0,1-.53,1.7,3.48,3.48,0,0,1-1.49,1.17q2.45,3.65,3.19,4.72h-2.55l-2.59-4.16Zm0-1.87h.74a2.83,2.83,0,0,0,1.61-.36,1.3,1.3,0,0,0,.52-1.14,1.18,1.18,0,0,0-.53-1.1,3.21,3.21,0,0,0-1.64-.33h-.7Z"/><path class="cls-1" d="M262.17,21.63V10.79h2.3V21.63Z"/><path class="cls-1" d="M273.44,21.63H267.2V10.79h6.24v1.88h-3.94v2.38h3.67v1.88h-3.67v2.79h3.94Z"/><path class="cls-1" d="M281.88,10.79h2.32l-3.68,10.84H278l-3.68-10.84h2.32l2,6.45q.17.57.35,1.33t.23,1.06a19.05,19.05,0,0,1,.56-2.39Z"/><path class="cls-1" d="M291.81,21.63h-6.24V10.79h6.24v1.88h-3.94v2.38h3.67v1.88h-3.67v2.79h3.94Z"/><path class="cls-1" d="M307,16.11a5.34,5.34,0,0,1-1.52,4.1,6.22,6.22,0,0,1-4.4,1.42H298V10.79h3.4a5.73,5.73,0,0,1,4.12,1.4A5.16,5.16,0,0,1,307,16.11Zm-2.39.06q0-3.49-3.08-3.49h-1.22v7.06h1Q304.61,19.73,304.61,16.17Z"/><path class="cls-1" d="M315.88,21.63l-.79-2.58h-4l-.79,2.58h-2.48l3.83-10.88h2.81l3.84,10.88Zm-1.33-4.51q-1.09-3.51-1.23-4t-.2-.73q-.24.95-1.4,4.69Z"/><path class="cls-1" d="M323.9,21.63h-2.3V12.7h-2.94V10.79h8.18V12.7H323.9Z"/><path class="cls-1" d="M335.15,21.63l-.79-2.58h-4l-.79,2.58h-2.48L331,10.75h2.81l3.84,10.88Zm-1.33-4.51q-1.09-3.51-1.23-4t-.2-.73q-.24.95-1.4,4.69Z"/></svg>